# xmcd
# 
# Track frame offsets:
#     150
#     18670
#     40520
#     59332
#     79922
#     101545
#     118670
#     136602
#     156290
#     178555
# 
# Disc length: 2585
# 
# Revision: 2
# Processed by: cddbd v1.5.2PL0 Copyright (c) Steve Scherf et al.
# Submitted via: fre:ac v1.1beta1pre5
# 
DISCID=780a170a
DTITLE=Pointer Sisters - Right Rhythm
DYEAR=1990
DGENRE=Pop
TTITLE0=Friends' Advice (Don't Take It)
TTITLE1=Man With The Right Rhythm
TTITLE2=Real Life
TTITLE3=After You
TTITLE4=You Knocked The Love (Right Outta My Heart)
TTITLE5=Billy Said Yes
TTITLE6=Insanity
TTITLE7=What A Woman Wants
TTITLE8=Where Have You Been?
TTITLE9=(We Just Wanna) Thank You
EXTD=
EXTT0=
EXTT1=
EXTT2=
EXTT3=
EXTT4=
EXTT5=
EXTT6=
EXTT7=
EXTT8=
EXTT9=
PLAYORDER=
